<mxfile host="app.diagrams.net" agent="Mozilla/5.0 (Windows NT 10.0; Win64; x64) AppleWebKit/537.36 (KHTML, like Gecko) Chrome/133.0.0.0 Safari/537.36 Edg/133.0.0.0" version="28.2.5">
  <diagram name="Página-1" id="RtNDm67UMsX_GQmZgC9A">
    <mxGraphModel dx="2124" dy="723" grid="1" gridSize="10" guides="1" tooltips="1" connect="1" arrows="1" fold="1" page="1" pageScale="1" pageWidth="827" pageHeight="1169" math="0" shadow="0">
      <root>
        <mxCell id="0" />
        <mxCell id="1" parent="0" />
        <mxCell id="__KbfA2v5_ZbWLw6vXkR-1" value="TELEFONE" style="whiteSpace=wrap;html=1;align=center;" vertex="1" parent="1">
          <mxGeometry x="50" y="280" width="100" height="40" as="geometry" />
        </mxCell>
        <mxCell id="__KbfA2v5_ZbWLw6vXkR-2" value="ANIMAL" style="whiteSpace=wrap;html=1;align=center;" vertex="1" parent="1">
          <mxGeometry x="590" y="490" width="100" height="40" as="geometry" />
        </mxCell>
        <mxCell id="__KbfA2v5_ZbWLw6vXkR-3" value="CLIENTE" style="whiteSpace=wrap;html=1;align=center;" vertex="1" parent="1">
          <mxGeometry x="590" y="280" width="100" height="40" as="geometry" />
        </mxCell>
        <mxCell id="__KbfA2v5_ZbWLw6vXkR-4" value="possui" style="shape=rhombus;perimeter=rhombusPerimeter;whiteSpace=wrap;html=1;align=center;" vertex="1" parent="1">
          <mxGeometry x="320" y="270" width="120" height="60" as="geometry" />
        </mxCell>
        <mxCell id="__KbfA2v5_ZbWLw6vXkR-5" value="" style="edgeStyle=entityRelationEdgeStyle;fontSize=12;html=1;endArrow=ERzeroToMany;endFill=1;rounded=0;exitX=1;exitY=0.5;exitDx=0;exitDy=0;" edge="1" parent="1" source="__KbfA2v5_ZbWLw6vXkR-1" target="__KbfA2v5_ZbWLw6vXkR-4">
          <mxGeometry width="100" height="100" relative="1" as="geometry">
            <mxPoint x="350" y="540" as="sourcePoint" />
            <mxPoint x="450" y="440" as="targetPoint" />
            <Array as="points">
              <mxPoint x="250" y="350" />
              <mxPoint x="280" y="380" />
            </Array>
          </mxGeometry>
        </mxCell>
        <mxCell id="__KbfA2v5_ZbWLw6vXkR-6" value="0,1" style="edgeLabel;html=1;align=center;verticalAlign=middle;resizable=0;points=[];" vertex="1" connectable="0" parent="__KbfA2v5_ZbWLw6vXkR-5">
          <mxGeometry x="-0.0254" y="-2" relative="1" as="geometry">
            <mxPoint as="offset" />
          </mxGeometry>
        </mxCell>
        <mxCell id="__KbfA2v5_ZbWLw6vXkR-7" value="" style="edgeStyle=entityRelationEdgeStyle;fontSize=12;html=1;endArrow=ERzeroToMany;endFill=1;rounded=0;exitX=1;exitY=0.5;exitDx=0;exitDy=0;" edge="1" parent="1" source="__KbfA2v5_ZbWLw6vXkR-4" target="__KbfA2v5_ZbWLw6vXkR-3">
          <mxGeometry width="100" height="100" relative="1" as="geometry">
            <mxPoint x="350" y="540" as="sourcePoint" />
            <mxPoint x="450" y="440" as="targetPoint" />
          </mxGeometry>
        </mxCell>
        <mxCell id="__KbfA2v5_ZbWLw6vXkR-8" value="realiza" style="shape=rhombus;perimeter=rhombusPerimeter;whiteSpace=wrap;html=1;align=center;" vertex="1" parent="1">
          <mxGeometry x="820" y="270" width="120" height="60" as="geometry" />
        </mxCell>
        <mxCell id="__KbfA2v5_ZbWLw6vXkR-9" value="possui" style="shape=rhombus;perimeter=rhombusPerimeter;whiteSpace=wrap;html=1;align=center;" vertex="1" parent="1">
          <mxGeometry x="40" y="510" width="120" height="60" as="geometry" />
        </mxCell>
        <mxCell id="__KbfA2v5_ZbWLw6vXkR-11" value="VENDA" style="whiteSpace=wrap;html=1;align=center;" vertex="1" parent="1">
          <mxGeometry x="1060" y="280" width="100" height="40" as="geometry" />
        </mxCell>
        <mxCell id="__KbfA2v5_ZbWLw6vXkR-12" value="ITEMVENDA" style="whiteSpace=wrap;html=1;align=center;" vertex="1" parent="1">
          <mxGeometry x="1070" y="520" width="100" height="40" as="geometry" />
        </mxCell>
        <mxCell id="__KbfA2v5_ZbWLw6vXkR-14" value="ATENDIMENTO" style="whiteSpace=wrap;html=1;align=center;" vertex="1" parent="1">
          <mxGeometry x="847" y="690" width="100" height="40" as="geometry" />
        </mxCell>
        <mxCell id="__KbfA2v5_ZbWLw6vXkR-15" value="" style="edgeStyle=entityRelationEdgeStyle;fontSize=12;html=1;endArrow=ERzeroToMany;endFill=1;rounded=0;exitX=1;exitY=0.5;exitDx=0;exitDy=0;entryX=0;entryY=0.5;entryDx=0;entryDy=0;" edge="1" parent="1" source="__KbfA2v5_ZbWLw6vXkR-3" target="__KbfA2v5_ZbWLw6vXkR-8">
          <mxGeometry width="100" height="100" relative="1" as="geometry">
            <mxPoint x="490" y="510" as="sourcePoint" />
            <mxPoint x="590" y="410" as="targetPoint" />
          </mxGeometry>
        </mxCell>
        <mxCell id="__KbfA2v5_ZbWLw6vXkR-16" value="" style="edgeStyle=entityRelationEdgeStyle;fontSize=12;html=1;endArrow=ERzeroToMany;endFill=1;rounded=0;entryX=0;entryY=0.5;entryDx=0;entryDy=0;" edge="1" parent="1" source="__KbfA2v5_ZbWLw6vXkR-8" target="__KbfA2v5_ZbWLw6vXkR-11">
          <mxGeometry width="100" height="100" relative="1" as="geometry">
            <mxPoint x="490" y="510" as="sourcePoint" />
            <mxPoint x="590" y="410" as="targetPoint" />
          </mxGeometry>
        </mxCell>
        <mxCell id="__KbfA2v5_ZbWLw6vXkR-17" value="ID" style="ellipse;whiteSpace=wrap;html=1;align=center;" vertex="1" parent="1">
          <mxGeometry x="140" y="380" width="100" height="40" as="geometry" />
        </mxCell>
        <mxCell id="__KbfA2v5_ZbWLw6vXkR-18" value="NUMERO" style="ellipse;whiteSpace=wrap;html=1;align=center;" vertex="1" parent="1">
          <mxGeometry x="-20" y="380" width="100" height="40" as="geometry" />
        </mxCell>
        <mxCell id="__KbfA2v5_ZbWLw6vXkR-22" value="&lt;span style=&quot;color: rgba(0, 0, 0, 0); font-family: monospace; font-size: 0px; text-align: start;&quot;&gt;%3CmxGraphModel%3E%3Croot%3E%3CmxCell%20id%3D%220%22%2F%3E%3CmxCell%20id%3D%221%22%20parent%3D%220%22%2F%3E%3CmxCell%20id%3D%222%22%20style%3D%22edgeStyle%3DorthogonalEdgeStyle%3Brounded%3D0%3BorthogonalLoop%3D1%3BjettySize%3Dauto%3Bhtml%3D1%3BexitX%3D0.5%3BexitY%3D0%3BexitDx%3D0%3BexitDy%3D0%3BentryX%3D0%3BentryY%3D1%3BentryDx%3D0%3BentryDy%3D0%3B%22%20edge%3D%221%22%20parent%3D%221%22%3E%3CmxGeometry%20relative%3D%221%22%20as%3D%22geometry%22%3E%3CmxPoint%20x%3D%2230%22%20y%3D%22380%22%20as%3D%22sourcePoint%22%2F%3E%3CmxPoint%20x%3D%2250%22%20y%3D%22320%22%20as%3D%22targetPoint%22%2F%3E%3C%2FmxGeometry%3E%3C%2FmxCell%3E%3C%2Froot%3E%3C%2FmxGraphModel%3E&lt;/span&gt;" style="text;html=1;align=center;verticalAlign=middle;resizable=0;points=[];autosize=1;strokeColor=none;fillColor=none;" vertex="1" parent="1">
          <mxGeometry x="150" y="338" width="20" height="30" as="geometry" />
        </mxCell>
        <mxCell id="__KbfA2v5_ZbWLw6vXkR-24" value="" style="endArrow=none;html=1;rounded=0;exitX=0.5;exitY=0;exitDx=0;exitDy=0;entryX=1;entryY=1;entryDx=0;entryDy=0;" edge="1" parent="1" source="__KbfA2v5_ZbWLw6vXkR-17" target="__KbfA2v5_ZbWLw6vXkR-1">
          <mxGeometry relative="1" as="geometry">
            <mxPoint x="460" y="460" as="sourcePoint" />
            <mxPoint x="620" y="460" as="targetPoint" />
          </mxGeometry>
        </mxCell>
        <mxCell id="__KbfA2v5_ZbWLw6vXkR-25" value="" style="endArrow=none;html=1;rounded=0;exitX=0.5;exitY=0;exitDx=0;exitDy=0;entryX=0;entryY=1;entryDx=0;entryDy=0;" edge="1" parent="1" source="__KbfA2v5_ZbWLw6vXkR-18" target="__KbfA2v5_ZbWLw6vXkR-1">
          <mxGeometry relative="1" as="geometry">
            <mxPoint x="460" y="460" as="sourcePoint" />
            <mxPoint x="620" y="460" as="targetPoint" />
          </mxGeometry>
        </mxCell>
        <mxCell id="__KbfA2v5_ZbWLw6vXkR-29" value="" style="edgeStyle=entityRelationEdgeStyle;fontSize=12;html=1;endArrow=ERzeroToMany;endFill=1;rounded=0;exitX=0.5;exitY=0;exitDx=0;exitDy=0;entryX=0.5;entryY=1;entryDx=0;entryDy=0;" edge="1" parent="1" source="__KbfA2v5_ZbWLw6vXkR-2" target="__KbfA2v5_ZbWLw6vXkR-3">
          <mxGeometry width="100" height="100" relative="1" as="geometry">
            <mxPoint x="490" y="510" as="sourcePoint" />
            <mxPoint x="630" y="330" as="targetPoint" />
            <Array as="points">
              <mxPoint x="620" y="390" />
              <mxPoint x="660" y="400" />
            </Array>
          </mxGeometry>
        </mxCell>
        <mxCell id="__KbfA2v5_ZbWLw6vXkR-30" value="ESPECIE" style="ellipse;whiteSpace=wrap;html=1;align=center;" vertex="1" parent="1">
          <mxGeometry x="520" y="560" width="100" height="40" as="geometry" />
        </mxCell>
        <mxCell id="__KbfA2v5_ZbWLw6vXkR-31" value="DATA NASCIMENTO" style="ellipse;whiteSpace=wrap;html=1;align=center;" vertex="1" parent="1">
          <mxGeometry x="690" y="560" width="100" height="40" as="geometry" />
        </mxCell>
        <mxCell id="__KbfA2v5_ZbWLw6vXkR-32" value="CODIGO" style="ellipse;whiteSpace=wrap;html=1;align=center;" vertex="1" parent="1">
          <mxGeometry x="413" y="490" width="100" height="40" as="geometry" />
        </mxCell>
        <mxCell id="__KbfA2v5_ZbWLw6vXkR-33" value="RAÇA" style="ellipse;whiteSpace=wrap;html=1;align=center;" vertex="1" parent="1">
          <mxGeometry x="590" y="650" width="100" height="40" as="geometry" />
        </mxCell>
        <mxCell id="__KbfA2v5_ZbWLw6vXkR-34" value="NOME" style="ellipse;whiteSpace=wrap;html=1;align=center;" vertex="1" parent="1">
          <mxGeometry x="400" y="560" width="100" height="40" as="geometry" />
        </mxCell>
        <mxCell id="__KbfA2v5_ZbWLw6vXkR-35" value="" style="endArrow=none;html=1;rounded=0;exitX=1;exitY=0.5;exitDx=0;exitDy=0;entryX=0;entryY=0.5;entryDx=0;entryDy=0;" edge="1" parent="1" source="__KbfA2v5_ZbWLw6vXkR-32" target="__KbfA2v5_ZbWLw6vXkR-2">
          <mxGeometry relative="1" as="geometry">
            <mxPoint x="460" y="460" as="sourcePoint" />
            <mxPoint x="620" y="460" as="targetPoint" />
          </mxGeometry>
        </mxCell>
        <mxCell id="__KbfA2v5_ZbWLw6vXkR-36" value="" style="endArrow=none;html=1;rounded=0;entryX=0;entryY=1;entryDx=0;entryDy=0;exitX=0.5;exitY=0;exitDx=0;exitDy=0;" edge="1" parent="1" source="__KbfA2v5_ZbWLw6vXkR-34" target="__KbfA2v5_ZbWLw6vXkR-2">
          <mxGeometry relative="1" as="geometry">
            <mxPoint x="460" y="460" as="sourcePoint" />
            <mxPoint x="620" y="460" as="targetPoint" />
          </mxGeometry>
        </mxCell>
        <mxCell id="__KbfA2v5_ZbWLw6vXkR-37" value="" style="endArrow=none;html=1;rounded=0;entryX=0.25;entryY=1;entryDx=0;entryDy=0;exitX=0.5;exitY=0;exitDx=0;exitDy=0;" edge="1" parent="1" source="__KbfA2v5_ZbWLw6vXkR-30" target="__KbfA2v5_ZbWLw6vXkR-2">
          <mxGeometry relative="1" as="geometry">
            <mxPoint x="460" y="460" as="sourcePoint" />
            <mxPoint x="620" y="460" as="targetPoint" />
          </mxGeometry>
        </mxCell>
        <mxCell id="__KbfA2v5_ZbWLw6vXkR-38" value="" style="endArrow=none;html=1;rounded=0;exitX=0.5;exitY=1;exitDx=0;exitDy=0;entryX=0.5;entryY=0;entryDx=0;entryDy=0;" edge="1" parent="1" source="__KbfA2v5_ZbWLw6vXkR-2" target="__KbfA2v5_ZbWLw6vXkR-33">
          <mxGeometry relative="1" as="geometry">
            <mxPoint x="460" y="460" as="sourcePoint" />
            <mxPoint x="620" y="460" as="targetPoint" />
          </mxGeometry>
        </mxCell>
        <mxCell id="__KbfA2v5_ZbWLw6vXkR-39" value="" style="endArrow=none;html=1;rounded=0;entryX=0.5;entryY=0;entryDx=0;entryDy=0;exitX=1;exitY=0.5;exitDx=0;exitDy=0;" edge="1" parent="1" source="__KbfA2v5_ZbWLw6vXkR-2" target="__KbfA2v5_ZbWLw6vXkR-31">
          <mxGeometry relative="1" as="geometry">
            <mxPoint x="460" y="460" as="sourcePoint" />
            <mxPoint x="620" y="460" as="targetPoint" />
          </mxGeometry>
        </mxCell>
        <mxCell id="__KbfA2v5_ZbWLw6vXkR-40" value="recebe" style="shape=rhombus;perimeter=rhombusPerimeter;whiteSpace=wrap;html=1;align=center;" vertex="1" parent="1">
          <mxGeometry x="827" y="490" width="120" height="60" as="geometry" />
        </mxCell>
        <mxCell id="__KbfA2v5_ZbWLw6vXkR-41" value="" style="edgeStyle=entityRelationEdgeStyle;fontSize=12;html=1;endArrow=ERzeroToMany;endFill=1;rounded=0;exitX=1;exitY=0.5;exitDx=0;exitDy=0;entryX=0;entryY=0.5;entryDx=0;entryDy=0;" edge="1" parent="1" source="__KbfA2v5_ZbWLw6vXkR-2" target="__KbfA2v5_ZbWLw6vXkR-40">
          <mxGeometry width="100" height="100" relative="1" as="geometry">
            <mxPoint x="490" y="510" as="sourcePoint" />
            <mxPoint x="590" y="410" as="targetPoint" />
          </mxGeometry>
        </mxCell>
        <mxCell id="__KbfA2v5_ZbWLw6vXkR-42" value="" style="edgeStyle=entityRelationEdgeStyle;fontSize=12;html=1;endArrow=ERzeroToMany;endFill=1;rounded=0;exitX=0.5;exitY=0;exitDx=0;exitDy=0;entryX=0.5;entryY=1;entryDx=0;entryDy=0;" edge="1" parent="1" source="__KbfA2v5_ZbWLw6vXkR-14" target="__KbfA2v5_ZbWLw6vXkR-40">
          <mxGeometry width="100" height="100" relative="1" as="geometry">
            <mxPoint x="490" y="510" as="sourcePoint" />
            <mxPoint x="590" y="410" as="targetPoint" />
          </mxGeometry>
        </mxCell>
        <mxCell id="__KbfA2v5_ZbWLw6vXkR-43" value="id" style="ellipse;whiteSpace=wrap;html=1;align=center;" vertex="1" parent="1">
          <mxGeometry x="740" y="630" width="100" height="40" as="geometry" />
        </mxCell>
        <mxCell id="__KbfA2v5_ZbWLw6vXkR-44" value="observações" style="ellipse;whiteSpace=wrap;html=1;align=center;" vertex="1" parent="1">
          <mxGeometry x="847" y="770" width="100" height="40" as="geometry" />
        </mxCell>
        <mxCell id="__KbfA2v5_ZbWLw6vXkR-45" value="diagnostico" style="ellipse;whiteSpace=wrap;html=1;align=center;" vertex="1" parent="1">
          <mxGeometry x="710" y="770" width="100" height="40" as="geometry" />
        </mxCell>
        <mxCell id="__KbfA2v5_ZbWLw6vXkR-46" value="data hora" style="ellipse;whiteSpace=wrap;html=1;align=center;" vertex="1" parent="1">
          <mxGeometry x="710" y="710" width="100" height="40" as="geometry" />
        </mxCell>
        <mxCell id="__KbfA2v5_ZbWLw6vXkR-47" value="" style="endArrow=none;html=1;rounded=0;exitX=0;exitY=0.25;exitDx=0;exitDy=0;entryX=1;entryY=0.5;entryDx=0;entryDy=0;" edge="1" parent="1" source="__KbfA2v5_ZbWLw6vXkR-14" target="__KbfA2v5_ZbWLw6vXkR-46">
          <mxGeometry relative="1" as="geometry">
            <mxPoint x="460" y="460" as="sourcePoint" />
            <mxPoint x="620" y="460" as="targetPoint" />
          </mxGeometry>
        </mxCell>
        <mxCell id="__KbfA2v5_ZbWLw6vXkR-48" style="edgeStyle=orthogonalEdgeStyle;rounded=0;orthogonalLoop=1;jettySize=auto;html=1;exitX=0;exitY=0.25;exitDx=0;exitDy=0;entryX=0;entryY=0.5;entryDx=0;entryDy=0;" edge="1" parent="1" source="__KbfA2v5_ZbWLw6vXkR-14" target="__KbfA2v5_ZbWLw6vXkR-14">
          <mxGeometry relative="1" as="geometry" />
        </mxCell>
        <mxCell id="__KbfA2v5_ZbWLw6vXkR-49" value="" style="endArrow=none;html=1;rounded=0;exitX=0.5;exitY=1;exitDx=0;exitDy=0;entryX=0;entryY=0;entryDx=0;entryDy=0;" edge="1" parent="1" source="__KbfA2v5_ZbWLw6vXkR-43" target="__KbfA2v5_ZbWLw6vXkR-14">
          <mxGeometry relative="1" as="geometry">
            <mxPoint x="460" y="460" as="sourcePoint" />
            <mxPoint x="620" y="460" as="targetPoint" />
          </mxGeometry>
        </mxCell>
        <mxCell id="__KbfA2v5_ZbWLw6vXkR-51" value="" style="endArrow=none;html=1;rounded=0;exitX=0.993;exitY=0.203;exitDx=0;exitDy=0;exitPerimeter=0;entryX=0;entryY=1;entryDx=0;entryDy=0;" edge="1" parent="1" source="__KbfA2v5_ZbWLw6vXkR-45" target="__KbfA2v5_ZbWLw6vXkR-14">
          <mxGeometry relative="1" as="geometry">
            <mxPoint x="460" y="460" as="sourcePoint" />
            <mxPoint x="620" y="460" as="targetPoint" />
          </mxGeometry>
        </mxCell>
        <mxCell id="__KbfA2v5_ZbWLw6vXkR-52" value="" style="endArrow=none;html=1;rounded=0;exitX=0.5;exitY=0;exitDx=0;exitDy=0;" edge="1" parent="1" source="__KbfA2v5_ZbWLw6vXkR-44" target="__KbfA2v5_ZbWLw6vXkR-14">
          <mxGeometry relative="1" as="geometry">
            <mxPoint x="460" y="460" as="sourcePoint" />
            <mxPoint x="620" y="460" as="targetPoint" />
          </mxGeometry>
        </mxCell>
        <mxCell id="__KbfA2v5_ZbWLw6vXkR-53" value="VETERINÁRIO" style="whiteSpace=wrap;html=1;align=center;" vertex="1" parent="1">
          <mxGeometry x="1050" y="790" width="100" height="40" as="geometry" />
        </mxCell>
        <mxCell id="__KbfA2v5_ZbWLw6vXkR-54" value="realiza" style="shape=rhombus;perimeter=rhombusPerimeter;whiteSpace=wrap;html=1;align=center;" vertex="1" parent="1">
          <mxGeometry x="1040" y="680" width="120" height="60" as="geometry" />
        </mxCell>
        <mxCell id="__KbfA2v5_ZbWLw6vXkR-55" value="" style="edgeStyle=entityRelationEdgeStyle;fontSize=12;html=1;endArrow=ERzeroToMany;endFill=1;rounded=0;entryX=0;entryY=0.5;entryDx=0;entryDy=0;exitX=1;exitY=0.5;exitDx=0;exitDy=0;" edge="1" parent="1" source="__KbfA2v5_ZbWLw6vXkR-14" target="__KbfA2v5_ZbWLw6vXkR-54">
          <mxGeometry width="100" height="100" relative="1" as="geometry">
            <mxPoint x="490" y="510" as="sourcePoint" />
            <mxPoint x="590" y="410" as="targetPoint" />
          </mxGeometry>
        </mxCell>
        <mxCell id="__KbfA2v5_ZbWLw6vXkR-56" value="" style="edgeStyle=entityRelationEdgeStyle;fontSize=12;html=1;endArrow=ERzeroToMany;endFill=1;rounded=0;entryX=0.5;entryY=1;entryDx=0;entryDy=0;exitX=0.5;exitY=0;exitDx=0;exitDy=0;" edge="1" parent="1" source="__KbfA2v5_ZbWLw6vXkR-53" target="__KbfA2v5_ZbWLw6vXkR-54">
          <mxGeometry width="100" height="100" relative="1" as="geometry">
            <mxPoint x="490" y="510" as="sourcePoint" />
            <mxPoint x="590" y="410" as="targetPoint" />
          </mxGeometry>
        </mxCell>
        <mxCell id="__KbfA2v5_ZbWLw6vXkR-57" value="TELEFONE" style="ellipse;whiteSpace=wrap;html=1;align=center;" vertex="1" parent="1">
          <mxGeometry x="1170" y="860" width="100" height="40" as="geometry" />
        </mxCell>
        <mxCell id="__KbfA2v5_ZbWLw6vXkR-58" value="ESPECIALIDADE" style="ellipse;whiteSpace=wrap;html=1;align=center;" vertex="1" parent="1">
          <mxGeometry x="1200" y="800" width="100" height="40" as="geometry" />
        </mxCell>
        <mxCell id="__KbfA2v5_ZbWLw6vXkR-59" value="NOME" style="ellipse;whiteSpace=wrap;html=1;align=center;" vertex="1" parent="1">
          <mxGeometry x="1050" y="860" width="100" height="40" as="geometry" />
        </mxCell>
        <mxCell id="__KbfA2v5_ZbWLw6vXkR-60" value="CRMV" style="ellipse;whiteSpace=wrap;html=1;align=center;" vertex="1" parent="1">
          <mxGeometry x="930" y="860" width="100" height="40" as="geometry" />
        </mxCell>
        <mxCell id="__KbfA2v5_ZbWLw6vXkR-61" value="" style="endArrow=none;html=1;rounded=0;exitX=0.5;exitY=0;exitDx=0;exitDy=0;entryX=0;entryY=0.75;entryDx=0;entryDy=0;" edge="1" parent="1" source="__KbfA2v5_ZbWLw6vXkR-60" target="__KbfA2v5_ZbWLw6vXkR-53">
          <mxGeometry relative="1" as="geometry">
            <mxPoint x="720" y="670" as="sourcePoint" />
            <mxPoint x="880" y="670" as="targetPoint" />
          </mxGeometry>
        </mxCell>
        <mxCell id="__KbfA2v5_ZbWLw6vXkR-62" value="" style="endArrow=none;html=1;rounded=0;exitX=0.5;exitY=0;exitDx=0;exitDy=0;entryX=0.5;entryY=1;entryDx=0;entryDy=0;" edge="1" parent="1" source="__KbfA2v5_ZbWLw6vXkR-59" target="__KbfA2v5_ZbWLw6vXkR-53">
          <mxGeometry relative="1" as="geometry">
            <mxPoint x="720" y="670" as="sourcePoint" />
            <mxPoint x="880" y="670" as="targetPoint" />
          </mxGeometry>
        </mxCell>
        <mxCell id="__KbfA2v5_ZbWLw6vXkR-63" value="" style="endArrow=none;html=1;rounded=0;exitX=0;exitY=0.5;exitDx=0;exitDy=0;entryX=1;entryY=0.5;entryDx=0;entryDy=0;" edge="1" parent="1" source="__KbfA2v5_ZbWLw6vXkR-58" target="__KbfA2v5_ZbWLw6vXkR-53">
          <mxGeometry relative="1" as="geometry">
            <mxPoint x="720" y="670" as="sourcePoint" />
            <mxPoint x="880" y="670" as="targetPoint" />
          </mxGeometry>
        </mxCell>
        <mxCell id="__KbfA2v5_ZbWLw6vXkR-64" value="" style="endArrow=none;html=1;rounded=0;exitX=0.5;exitY=0;exitDx=0;exitDy=0;entryX=1;entryY=1;entryDx=0;entryDy=0;" edge="1" parent="1" source="__KbfA2v5_ZbWLw6vXkR-57" target="__KbfA2v5_ZbWLw6vXkR-53">
          <mxGeometry relative="1" as="geometry">
            <mxPoint x="720" y="670" as="sourcePoint" />
            <mxPoint x="880" y="670" as="targetPoint" />
          </mxGeometry>
        </mxCell>
        <mxCell id="__KbfA2v5_ZbWLw6vXkR-65" value="CODIGO" style="ellipse;whiteSpace=wrap;html=1;align=center;" vertex="1" parent="1">
          <mxGeometry x="450" y="240" width="100" height="40" as="geometry" />
        </mxCell>
        <mxCell id="__KbfA2v5_ZbWLw6vXkR-66" value="ENDERECO" style="ellipse;whiteSpace=wrap;html=1;align=center;" vertex="1" parent="1">
          <mxGeometry x="730" y="230" width="100" height="40" as="geometry" />
        </mxCell>
        <mxCell id="__KbfA2v5_ZbWLw6vXkR-67" value="CPF" style="ellipse;whiteSpace=wrap;html=1;align=center;" vertex="1" parent="1">
          <mxGeometry x="620" y="190" width="100" height="40" as="geometry" />
        </mxCell>
        <mxCell id="__KbfA2v5_ZbWLw6vXkR-68" value="NOME" style="ellipse;whiteSpace=wrap;html=1;align=center;" vertex="1" parent="1">
          <mxGeometry x="490" y="190" width="100" height="40" as="geometry" />
        </mxCell>
        <mxCell id="__KbfA2v5_ZbWLw6vXkR-69" value="" style="endArrow=none;html=1;rounded=0;exitX=1;exitY=0.5;exitDx=0;exitDy=0;entryX=0;entryY=0;entryDx=0;entryDy=0;" edge="1" parent="1" source="__KbfA2v5_ZbWLw6vXkR-65" target="__KbfA2v5_ZbWLw6vXkR-3">
          <mxGeometry relative="1" as="geometry">
            <mxPoint x="720" y="400" as="sourcePoint" />
            <mxPoint x="880" y="400" as="targetPoint" />
          </mxGeometry>
        </mxCell>
        <mxCell id="__KbfA2v5_ZbWLw6vXkR-70" value="" style="endArrow=none;html=1;rounded=0;exitX=1;exitY=1;exitDx=0;exitDy=0;entryX=0.25;entryY=0;entryDx=0;entryDy=0;" edge="1" parent="1" source="__KbfA2v5_ZbWLw6vXkR-68" target="__KbfA2v5_ZbWLw6vXkR-3">
          <mxGeometry relative="1" as="geometry">
            <mxPoint x="720" y="400" as="sourcePoint" />
            <mxPoint x="880" y="400" as="targetPoint" />
          </mxGeometry>
        </mxCell>
        <mxCell id="__KbfA2v5_ZbWLw6vXkR-71" value="" style="endArrow=none;html=1;rounded=0;exitX=0;exitY=0.5;exitDx=0;exitDy=0;entryX=1;entryY=0;entryDx=0;entryDy=0;" edge="1" parent="1" source="__KbfA2v5_ZbWLw6vXkR-66" target="__KbfA2v5_ZbWLw6vXkR-3">
          <mxGeometry relative="1" as="geometry">
            <mxPoint x="720" y="400" as="sourcePoint" />
            <mxPoint x="880" y="400" as="targetPoint" />
          </mxGeometry>
        </mxCell>
        <mxCell id="__KbfA2v5_ZbWLw6vXkR-72" value="" style="endArrow=none;html=1;rounded=0;exitX=0.5;exitY=1;exitDx=0;exitDy=0;entryX=0.5;entryY=0;entryDx=0;entryDy=0;" edge="1" parent="1" source="__KbfA2v5_ZbWLw6vXkR-67" target="__KbfA2v5_ZbWLw6vXkR-3">
          <mxGeometry relative="1" as="geometry">
            <mxPoint x="720" y="400" as="sourcePoint" />
            <mxPoint x="880" y="400" as="targetPoint" />
          </mxGeometry>
        </mxCell>
        <mxCell id="__KbfA2v5_ZbWLw6vXkR-74" value="DATA" style="ellipse;whiteSpace=wrap;html=1;align=center;" vertex="1" parent="1">
          <mxGeometry x="1141" y="210" width="100" height="40" as="geometry" />
        </mxCell>
        <mxCell id="__KbfA2v5_ZbWLw6vXkR-75" value="ID" style="ellipse;whiteSpace=wrap;html=1;align=center;" vertex="1" parent="1">
          <mxGeometry x="990" y="210" width="100" height="40" as="geometry" />
        </mxCell>
        <mxCell id="__KbfA2v5_ZbWLw6vXkR-76" value="" style="endArrow=none;html=1;rounded=0;exitX=0.5;exitY=1;exitDx=0;exitDy=0;entryX=0.86;entryY=-0.019;entryDx=0;entryDy=0;entryPerimeter=0;" edge="1" parent="1" source="__KbfA2v5_ZbWLw6vXkR-74" target="__KbfA2v5_ZbWLw6vXkR-11">
          <mxGeometry relative="1" as="geometry">
            <mxPoint x="1190" y="278.33" as="sourcePoint" />
            <mxPoint x="1350" y="278.33" as="targetPoint" />
          </mxGeometry>
        </mxCell>
        <mxCell id="__KbfA2v5_ZbWLw6vXkR-77" value="" style="endArrow=none;html=1;rounded=0;exitX=1;exitY=1;exitDx=0;exitDy=0;entryX=0.5;entryY=0;entryDx=0;entryDy=0;" edge="1" parent="1" source="__KbfA2v5_ZbWLw6vXkR-75" target="__KbfA2v5_ZbWLw6vXkR-11">
          <mxGeometry relative="1" as="geometry">
            <mxPoint x="720" y="400" as="sourcePoint" />
            <mxPoint x="880" y="400" as="targetPoint" />
          </mxGeometry>
        </mxCell>
        <mxCell id="__KbfA2v5_ZbWLw6vXkR-78" value="CONTÉM" style="shape=rhombus;perimeter=rhombusPerimeter;whiteSpace=wrap;html=1;align=center;" vertex="1" parent="1">
          <mxGeometry x="1050" y="380" width="120" height="60" as="geometry" />
        </mxCell>
        <mxCell id="__KbfA2v5_ZbWLw6vXkR-79" value="" style="edgeStyle=entityRelationEdgeStyle;fontSize=12;html=1;endArrow=ERzeroToMany;endFill=1;rounded=0;entryX=0.5;entryY=1;entryDx=0;entryDy=0;exitX=0.5;exitY=0;exitDx=0;exitDy=0;" edge="1" parent="1" source="__KbfA2v5_ZbWLw6vXkR-78" target="__KbfA2v5_ZbWLw6vXkR-11">
          <mxGeometry width="100" height="100" relative="1" as="geometry">
            <mxPoint x="750" y="450" as="sourcePoint" />
            <mxPoint x="1110" y="330" as="targetPoint" />
          </mxGeometry>
        </mxCell>
        <mxCell id="__KbfA2v5_ZbWLw6vXkR-80" value="" style="edgeStyle=entityRelationEdgeStyle;fontSize=12;html=1;endArrow=ERzeroToMany;endFill=1;rounded=0;exitX=0.5;exitY=0;exitDx=0;exitDy=0;" edge="1" parent="1" source="__KbfA2v5_ZbWLw6vXkR-12">
          <mxGeometry width="100" height="100" relative="1" as="geometry">
            <mxPoint x="750" y="450" as="sourcePoint" />
            <mxPoint x="1120" y="440" as="targetPoint" />
          </mxGeometry>
        </mxCell>
        <mxCell id="__KbfA2v5_ZbWLw6vXkR-81" value="QUANTIDADE" style="ellipse;whiteSpace=wrap;html=1;align=center;" vertex="1" parent="1">
          <mxGeometry x="1220" y="520" width="100" height="40" as="geometry" />
        </mxCell>
        <mxCell id="__KbfA2v5_ZbWLw6vXkR-82" value="ID" style="ellipse;whiteSpace=wrap;html=1;align=center;" vertex="1" parent="1">
          <mxGeometry x="960" y="585" width="100" height="40" as="geometry" />
        </mxCell>
        <mxCell id="__KbfA2v5_ZbWLw6vXkR-83" value="" style="endArrow=none;html=1;rounded=0;entryX=0;entryY=1;entryDx=0;entryDy=0;exitX=0.5;exitY=0;exitDx=0;exitDy=0;" edge="1" parent="1" source="__KbfA2v5_ZbWLw6vXkR-82" target="__KbfA2v5_ZbWLw6vXkR-12">
          <mxGeometry relative="1" as="geometry">
            <mxPoint x="720" y="400" as="sourcePoint" />
            <mxPoint x="880" y="400" as="targetPoint" />
          </mxGeometry>
        </mxCell>
        <mxCell id="__KbfA2v5_ZbWLw6vXkR-84" value="" style="endArrow=none;html=1;rounded=0;exitX=0;exitY=0.5;exitDx=0;exitDy=0;entryX=1;entryY=0.5;entryDx=0;entryDy=0;" edge="1" parent="1" source="__KbfA2v5_ZbWLw6vXkR-81" target="__KbfA2v5_ZbWLw6vXkR-12">
          <mxGeometry relative="1" as="geometry">
            <mxPoint x="720" y="400" as="sourcePoint" />
            <mxPoint x="890" y="400" as="targetPoint" />
          </mxGeometry>
        </mxCell>
        <mxCell id="__KbfA2v5_ZbWLw6vXkR-85" value="VENDIDO EM" style="shape=rhombus;perimeter=rhombusPerimeter;whiteSpace=wrap;html=1;align=center;" vertex="1" parent="1">
          <mxGeometry x="1210" y="635" width="120" height="70" as="geometry" />
        </mxCell>
        <mxCell id="__KbfA2v5_ZbWLw6vXkR-86" value="" style="edgeStyle=entityRelationEdgeStyle;fontSize=12;html=1;endArrow=ERzeroToMany;endFill=1;rounded=0;entryX=0.5;entryY=1;entryDx=0;entryDy=0;" edge="1" parent="1" source="__KbfA2v5_ZbWLw6vXkR-85" target="__KbfA2v5_ZbWLw6vXkR-12">
          <mxGeometry width="100" height="100" relative="1" as="geometry">
            <mxPoint x="750" y="450" as="sourcePoint" />
            <mxPoint x="850" y="350" as="targetPoint" />
            <Array as="points">
              <mxPoint x="810" y="420" />
              <mxPoint x="1260" y="630" />
            </Array>
          </mxGeometry>
        </mxCell>
        <mxCell id="__KbfA2v5_ZbWLw6vXkR-96" style="edgeStyle=orthogonalEdgeStyle;rounded=0;orthogonalLoop=1;jettySize=auto;html=1;exitX=0;exitY=1;exitDx=0;exitDy=0;entryX=1;entryY=0;entryDx=0;entryDy=0;" edge="1" parent="1" source="__KbfA2v5_ZbWLw6vXkR-88" target="__KbfA2v5_ZbWLw6vXkR-91">
          <mxGeometry relative="1" as="geometry" />
        </mxCell>
        <mxCell id="__KbfA2v5_ZbWLw6vXkR-97" style="edgeStyle=orthogonalEdgeStyle;rounded=0;orthogonalLoop=1;jettySize=auto;html=1;exitX=0.25;exitY=1;exitDx=0;exitDy=0;entryX=1;entryY=0;entryDx=0;entryDy=0;" edge="1" parent="1" source="__KbfA2v5_ZbWLw6vXkR-88" target="__KbfA2v5_ZbWLw6vXkR-93">
          <mxGeometry relative="1" as="geometry" />
        </mxCell>
        <mxCell id="__KbfA2v5_ZbWLw6vXkR-98" style="edgeStyle=orthogonalEdgeStyle;rounded=0;orthogonalLoop=1;jettySize=auto;html=1;exitX=0.5;exitY=1;exitDx=0;exitDy=0;entryX=0.5;entryY=0;entryDx=0;entryDy=0;" edge="1" parent="1" source="__KbfA2v5_ZbWLw6vXkR-88" target="__KbfA2v5_ZbWLw6vXkR-92">
          <mxGeometry relative="1" as="geometry" />
        </mxCell>
        <mxCell id="__KbfA2v5_ZbWLw6vXkR-99" style="edgeStyle=orthogonalEdgeStyle;rounded=0;orthogonalLoop=1;jettySize=auto;html=1;exitX=1;exitY=1;exitDx=0;exitDy=0;entryX=0;entryY=0.5;entryDx=0;entryDy=0;" edge="1" parent="1" source="__KbfA2v5_ZbWLw6vXkR-88" target="__KbfA2v5_ZbWLw6vXkR-90">
          <mxGeometry relative="1" as="geometry" />
        </mxCell>
        <mxCell id="__KbfA2v5_ZbWLw6vXkR-88" value="PRODUTO" style="whiteSpace=wrap;html=1;align=center;" vertex="1" parent="1">
          <mxGeometry x="1450" y="650" width="100" height="40" as="geometry" />
        </mxCell>
        <mxCell id="__KbfA2v5_ZbWLw6vXkR-89" value="" style="edgeStyle=entityRelationEdgeStyle;fontSize=12;html=1;endArrow=ERzeroToMany;endFill=1;rounded=0;entryX=0;entryY=0.5;entryDx=0;entryDy=0;exitX=1;exitY=0.5;exitDx=0;exitDy=0;" edge="1" parent="1" source="__KbfA2v5_ZbWLw6vXkR-85" target="__KbfA2v5_ZbWLw6vXkR-88">
          <mxGeometry width="100" height="100" relative="1" as="geometry">
            <mxPoint x="880" y="510" as="sourcePoint" />
            <mxPoint x="980" y="410" as="targetPoint" />
            <Array as="points">
              <mxPoint x="1320" y="660" />
            </Array>
          </mxGeometry>
        </mxCell>
        <mxCell id="__KbfA2v5_ZbWLw6vXkR-90" value="QUANTIDADE ESTOQUE" style="ellipse;whiteSpace=wrap;html=1;align=center;" vertex="1" parent="1">
          <mxGeometry x="1560" y="705" width="100" height="40" as="geometry" />
        </mxCell>
        <mxCell id="__KbfA2v5_ZbWLw6vXkR-91" value="CODIGO" style="ellipse;whiteSpace=wrap;html=1;align=center;" vertex="1" parent="1">
          <mxGeometry x="1330" y="700" width="100" height="40" as="geometry" />
        </mxCell>
        <mxCell id="__KbfA2v5_ZbWLw6vXkR-92" value="PREÇO" style="ellipse;whiteSpace=wrap;html=1;align=center;" vertex="1" parent="1">
          <mxGeometry x="1460" y="750" width="100" height="40" as="geometry" />
        </mxCell>
        <mxCell id="__KbfA2v5_ZbWLw6vXkR-93" value="NOME" style="ellipse;whiteSpace=wrap;html=1;align=center;" vertex="1" parent="1">
          <mxGeometry x="1350" y="750" width="100" height="40" as="geometry" />
        </mxCell>
      </root>
    </mxGraphModel>
  </diagram>
</mxfile>
